<?xml version="1.0" standalone="no"?><!DOCTYPE svg PUBLIC "-//W3C//DTD SVG 1.1//EN" "http://www.w3.org/Graphics/SVG/1.1/DTD/svg11.dtd"><svg t="1674895133727" class="icon" viewBox="0 0 1024 1024" version="1.1" xmlns="http://www.w3.org/2000/svg" p-id="730" xmlns:xlink="http://www.w3.org/1999/xlink" width="200" height="200"><path d="M853.333333 85.333333a128 128 0 0 1 128 128v256c0 259.2-210.133333 469.333333-469.333333 469.333334S42.666667 728.533333 42.666667 469.333333V213.333333a128 128 0 0 1 128-128h682.666666z m0 85.333334H170.666667a42.666667 42.666667 0 0 0-42.368 37.674666L128 213.333333v256a384 384 0 0 0 767.829333 11.306667L896 469.333333V213.333333a42.666667 42.666667 0 0 0-37.674667-42.368L853.333333 170.666667zM361.130667 386.133333L512 536.96l150.912-150.826667a42.666667 42.666667 0 0 1 60.330667 60.330667l-181.034667 181.034667a42.453333 42.453333 0 0 1-22.613333 11.818666l-5.034667 0.597334h-5.034667a42.496 42.496 0 0 1-27.648-12.373334L300.8 446.421333A42.666667 42.666667 0 0 1 361.130667 386.133333z" fill="#56bff9" p-id="731"></path></svg>