<svg id="close-circle" xmlns="http://www.w3.org/2000/svg" width="40" height="40" viewBox="0 0 40 40">
  <path id="Shape" d="M20,40A20,20,0,0,1,5.857,5.857,20,20,0,0,1,34.142,34.142,19.87,19.87,0,0,1,20,40Zm0-18.009h0l6.027,6.042a1.405,1.405,0,0,0,1.987,0,1.409,1.409,0,0,0,0-1.989L21.984,20l6.036-6.054a1.406,1.406,0,0,0-1-2.4,1.39,1.39,0,0,0-.994.413L20,18.007l-6.027-6.042a1.405,1.405,0,1,0-1.992,1.983L18.015,20,11.98,26.05a1.406,1.406,0,0,0,1,2.4,1.385,1.385,0,0,0,1-.414L20,21.992Z" fill="#e5574e"/>
</svg>
